# 3ds Max Wavefront OBJ Exporter v0.97b - (c)2007 guruware
# File Created: 09.02.2018 15:04:20

mtllib Turret_MeshTEST4.mtl

#
# object Turret
#

v  79.8976 4.9646 9.5111
v  81.3652 4.9646 7.8633
v  81.3652 4.9646 -7.8633
v  79.8976 4.9646 -9.5111
v  76.2970 4.9646 20.9515
v  77.2460 4.9646 20.9515
v  76.2008 3.2490 8.6872
v  76.2008 0.0000 8.6872
v  71.9986 0.0000 22.0392
v  71.9986 3.2490 22.0392
v  77.2460 4.9646 -20.9515
v  76.2970 4.9646 -20.9515
v  87.4353 0.4544 -15.5641
v  87.4353 0.0000 -15.5641
v  85.9367 0.0000 -20.3259
v  85.9367 0.4544 -20.3259
v  72.7062 4.9646 24.4636
v  77.6714 4.9646 8.6872
v  77.6714 4.9646 -8.6872
v  76.2008 3.2490 -8.6872
v  72.7062 4.9646 -24.4636
v  71.9986 3.2490 -22.0392
v  72.7062 0.0000 -24.4636
v  71.9986 0.0000 -22.0392
v  78.6261 4.9646 -24.4636
v  83.5913 4.9646 -8.6872
v  86.0423 3.7392 -8.6872
v  81.6221 3.7392 -22.7319
v  83.5913 4.9646 8.6872
v  86.0423 3.7392 8.6872
v  78.6261 4.9646 24.4636
v  81.6221 3.7392 22.7319
v  78.6261 0.0000 24.4636
v  81.6221 0.0000 22.7319
v  86.0423 0.0000 8.6872
v  86.0423 0.0000 2.5746
v  86.0423 2.6993 2.5746
v  86.0423 2.6993 -2.5746
v  82.8648 0.9446 18.7831
v  84.7995 0.9446 12.6360
v  82.8648 0.0000 18.7831
v  86.0423 0.0000 -8.6872
v  84.7995 0.0000 -12.6360
v  84.7995 0.9446 -12.6360
v  82.8648 0.9446 -18.7831
v  105.6500 0.0000 2.5746
v  105.6500 2.6993 2.5746
v  105.6500 2.6993 -2.5746
v  107.6108 0.0000 1.4145
v  107.6108 1.9640 1.4145
v  107.6108 1.9640 -1.4145
v  85.0601 0.9446 20.5027
v  86.9948 0.9446 14.3556
v  85.0601 0.0000 20.5027
v  86.9948 0.0000 -14.3556
v  86.9948 0.9446 -14.3556
v  85.0601 0.9446 -20.5027
v  85.9367 0.4544 20.3259
v  87.4353 0.4544 15.5641
v  85.9367 0.0000 20.3259
v  82.1004 4.9646 -8.1354
v  82.1004 4.9646 8.1354
v  77.7018 4.9646 -22.1115
v  75.1110 4.9646 -22.1115
v  79.1623 4.9646 -9.2390
v  79.1623 4.9646 9.2390
v  75.1110 4.9646 22.1115
v  77.7018 4.9646 22.1115
v  82.1004 3.4941 -8.1354
v  82.1004 3.4941 8.1354
v  77.7018 3.4941 -22.1115
v  75.1110 3.4941 -22.1115
v  79.1623 3.4941 -9.2390
v  79.1623 3.4941 9.2390
v  75.1110 3.4941 22.1115
v  77.7018 3.4941 22.1115
v  81.3652 3.4941 -7.8633
v  81.3652 3.4941 7.8633
v  77.2460 3.4941 -20.9515
v  76.2970 3.4941 -20.9515
v  79.8976 3.4941 -9.5111
v  79.8976 3.4941 9.5111
v  76.2970 3.4941 20.9515
v  77.2460 3.4941 20.9515
v  72.7062 0.0000 24.4636
v  107.6108 0.0000 -1.4145
v  78.6261 0.0000 -24.4636
v  76.2008 0.0000 -8.6872
v  87.4353 0.0000 15.5641
v  81.6221 0.0000 -22.7319
v  86.0423 0.0000 -2.5746
v  84.7995 0.0000 12.6360
v  82.8648 0.0000 -18.7831
v  105.6500 0.0000 -2.5746
v  86.9948 0.0000 14.3556
v  85.0601 0.0000 -20.5027
v  79.8976 -4.9646 9.5111
v  79.8976 -4.9646 -9.5111
v  81.3652 -4.9646 -7.8633
v  81.3652 -4.9646 7.8633
v  77.2460 -4.9646 20.9515
v  76.2970 -4.9646 20.9515
v  76.2008 -3.2490 8.6872
v  71.9986 -3.2490 22.0392
v  76.2970 -4.9646 -20.9515
v  77.2460 -4.9646 -20.9515
v  87.4353 -0.4544 -15.5641
v  85.9367 -0.4544 -20.3259
v  72.7062 -4.9646 24.4636
v  77.6714 -4.9646 8.6872
v  76.2008 -3.2490 -8.6872
v  77.6714 -4.9646 -8.6872
v  71.9986 -3.2490 -22.0392
v  72.7062 -4.9646 -24.4636
v  78.6261 -4.9646 -24.4636
v  81.6221 -3.7392 -22.7319
v  86.0423 -3.7392 -8.6872
v  83.5913 -4.9646 -8.6872
v  86.0423 -3.7392 8.6872
v  83.5913 -4.9646 8.6872
v  81.6221 -3.7392 22.7319
v  78.6261 -4.9646 24.4636
v  86.0423 -2.6993 2.5746
v  86.0423 -2.6993 -2.5746
v  84.7995 -0.9446 12.6360
v  82.8648 -0.9446 18.7831
v  84.7995 -0.9446 -12.6360
v  82.8648 -0.9446 -18.7831
v  105.6500 -2.6993 2.5746
v  105.6500 -2.6993 -2.5746
v  107.6108 -1.9640 1.4145
v  107.6108 -1.9640 -1.4145
v  86.9948 -0.9446 14.3556
v  85.0601 -0.9446 20.5027
v  86.9948 -0.9446 -14.3556
v  85.0601 -0.9446 -20.5027
v  87.4353 -0.4544 15.5641
v  85.9367 -0.4544 20.3259
v  82.1004 -4.9646 8.1354
v  82.1004 -4.9646 -8.1354
v  77.7018 -4.9646 -22.1115
v  75.1110 -4.9646 -22.1115
v  79.1623 -4.9646 -9.2390
v  79.1623 -4.9646 9.2390
v  75.1110 -4.9646 22.1115
v  77.7018 -4.9646 22.1115
v  82.1004 -3.4941 8.1354
v  82.1004 -3.4941 -8.1354
v  77.7018 -3.4941 -22.1115
v  75.1110 -3.4941 -22.1115
v  79.1623 -3.4941 -9.2390
v  79.1623 -3.4941 9.2390
v  75.1110 -3.4941 22.1115
v  77.7018 -3.4941 22.1115
v  81.3652 -3.4941 7.8633
v  81.3652 -3.4941 -7.8633
v  77.2460 -3.4941 -20.9515
v  76.2970 -3.4941 -20.9515
v  79.8976 -3.4941 -9.5111
v  79.8976 -3.4941 9.5111
v  76.2970 -3.4941 20.9515
v  77.2460 -3.4941 20.9515
# 162 vertices

vn 0.0000 1.0000 -0.0000
vn -0.8957 0.0000 -0.4447
vn 0.8957 0.0000 -0.4447
vn -0.7104 0.6090 -0.3528
vn -0.7593 0.6508 -0.0000
vn -0.7104 0.6090 0.3528
vn -0.9083 0.0000 -0.4183
vn 0.4366 0.8732 -0.2168
vn 0.4472 0.8944 -0.0000
vn 0.4366 0.8732 0.2168
vn 0.3440 -0.0000 0.9390
vn 1.0000 0.0000 -0.0000
vn 0.8957 0.0000 0.4447
vn 0.8957 -0.0000 0.4447
vn 0.0000 0.0000 1.0000
vn 0.3511 0.0000 0.9363
vn 0.3511 0.9363 -0.0000
vn -0.4447 0.0000 0.8957
vn 0.4447 0.0000 0.8957
vn 0.4968 0.8321 0.2467
vn 0.1268 0.0000 0.9919
vn 0.8669 0.0000 0.4986
vn 0.4968 0.8321 -0.2467
vn -1.0000 0.0000 -0.0000
vn -0.8957 0.0000 0.4447
vn 0.0000 0.0000 -1.0000
vn -0.9083 0.0000 0.4183
vn 0.3440 0.0000 -0.9390
vn 0.3511 0.0000 -0.9363
vn 0.4447 0.0000 -0.8957
vn -0.4447 0.0000 -0.8957
vn 0.8669 0.0000 -0.4986
vn 0.1268 0.0000 -0.9919
vn 0.0000 -1.0000 -0.0000
vn -0.7104 -0.6090 -0.3528
vn -0.7593 -0.6508 -0.0000
vn -0.7104 -0.6090 0.3528
vn 0.4366 -0.8732 -0.2168
vn 0.4472 -0.8944 -0.0000
vn 0.4366 -0.8732 0.2168
vn 0.3440 0.0000 0.9390
vn 0.3511 -0.9363 -0.0000
vn 0.4968 -0.8321 0.2467
vn 0.4968 -0.8321 -0.2467
# 44 vertex normals

vt 0.7362 0.3487 0.0000
vt 0.7139 0.3328 0.0000
vt 0.7139 0.1813 0.0000
vt 0.7362 0.1654 0.0000
vt 0.7910 0.4566 0.0000
vt 0.7765 0.4566 0.0000
vt 0.0317 0.7033 0.0000
vt 0.0624 0.7033 0.0000
vt 0.0624 0.7834 0.0000
vt 0.0317 0.7834 0.0000
vt 0.7765 0.0527 0.0000
vt 0.7910 0.0527 0.0000
vt 0.1688 0.9667 0.0000
vt 0.1645 0.9667 0.0000
vt 0.1645 0.9387 0.0000
vt 0.1688 0.9387 0.0000
vt 0.0154 0.7979 0.0000
vt 0.0154 0.7033 0.0000
vt 0.0154 0.5991 0.0000
vt 0.0317 0.5991 0.0000
vt 0.0154 0.5044 0.0000
vt 0.0317 0.5190 0.0000
vt 0.0624 0.5044 0.0000
vt 0.0624 0.5190 0.0000
vt 0.1785 0.5022 0.0000
vt 0.1339 0.5920 0.0000
vt 0.1119 0.5920 0.0000
vt 0.1516 0.5121 0.0000
vt 0.1339 0.6908 0.0000
vt 0.1119 0.6908 0.0000
vt 0.1785 0.7806 0.0000
vt 0.1516 0.7708 0.0000
vt 0.0419 0.8005 0.0000
vt 0.0419 0.8443 0.0000
vt 0.0154 0.8443 0.0000
vt 0.0154 0.8113 0.0000
vt 0.4277 0.5851 0.0000
vt 0.4616 0.5851 0.0000
vt 0.4616 0.6202 0.0000
vt 0.4371 0.6202 0.0000
vt 0.4277 0.6849 0.0000
vt 0.4371 0.6498 0.0000
vt 0.4277 0.5044 0.0000
vt 0.4530 0.5271 0.0000
vt 0.4530 0.5624 0.0000
vt 0.4616 0.5044 0.0000
vt 0.4616 0.5271 0.0000
vt 0.4616 0.6849 0.0000
vt 0.4616 0.7076 0.0000
vt 0.4530 0.7076 0.0000
vt 0.4277 0.7656 0.0000
vt 0.4530 0.7429 0.0000
vt 0.4365 0.7676 0.0000
vt 0.4602 0.7676 0.0000
vt 0.4602 0.9394 0.0000
vt 0.4365 0.9394 0.0000
vt 0.3488 0.7588 0.0000
vt 0.3774 0.7588 0.0000
vt 0.3774 0.9306 0.0000
vt 0.3488 0.9306 0.0000
vt 0.4602 0.9566 0.0000
vt 0.4429 0.9566 0.0000
vt 0.3709 0.9478 0.0000
vt 0.3552 0.9478 0.0000
vt 0.3972 0.9800 0.0000
vt 0.3585 0.9817 0.0000
vt 0.3575 0.9598 0.0000
vt 0.3963 0.9582 0.0000
vt 0.4845 0.9864 0.0000
vt 0.4758 0.9864 0.0000
vt 0.4758 0.9664 0.0000
vt 0.4845 0.9664 0.0000
vt 0.1986 0.8482 0.0000
vt 0.1904 0.8482 0.0000
vt 0.1904 0.8268 0.0000
vt 0.1986 0.8268 0.0000
vt 0.1732 0.8290 0.0000
vt 0.1602 0.7925 0.0000
vt 0.1808 0.7851 0.0000
vt 0.1938 0.8217 0.0000
vt 0.3616 0.9531 0.0000
vt 0.3917 0.9518 0.0000
vt 0.4758 0.9584 0.0000
vt 0.4800 0.9584 0.0000
vt 0.1733 0.9738 0.0000
vt 0.1645 0.9738 0.0000
vt 0.1884 0.7871 0.0000
vt 0.1985 0.8154 0.0000
vt 0.1473 0.5951 0.0000
vt 0.1473 0.6877 0.0000
vt 0.1868 0.5156 0.0000
vt 0.2316 0.5022 0.0000
vt 0.2100 0.5156 0.0000
vt 0.1871 0.5920 0.0000
vt 0.1737 0.5889 0.0000
vt 0.1871 0.6908 0.0000
vt 0.1737 0.6940 0.0000
vt 0.2316 0.7806 0.0000
vt 0.2100 0.7672 0.0000
vt 0.1868 0.7672 0.0000
vt 0.3882 0.6780 0.0000
vt 0.3882 0.5846 0.0000
vt 0.4016 0.5846 0.0000
vt 0.4016 0.6780 0.0000
vt 0.3882 0.5044 0.0000
vt 0.4016 0.5044 0.0000
vt 0.3134 0.7851 0.0000
vt 0.3134 0.8078 0.0000
vt 0.3005 0.8078 0.0000
vt 0.3005 0.7851 0.0000
vt 0.3685 0.7576 0.0000
vt 0.3685 0.6839 0.0000
vt 0.3818 0.6839 0.0000
vt 0.3818 0.7576 0.0000
vt 0.3685 0.5781 0.0000
vt 0.3818 0.5781 0.0000
vt 0.3685 0.5044 0.0000
vt 0.3818 0.5044 0.0000
vt 0.2827 0.7851 0.0000
vt 0.2827 0.8078 0.0000
vt 0.2698 0.8078 0.0000
vt 0.2698 0.7851 0.0000
vt 0.3882 0.7583 0.0000
vt 0.4016 0.7583 0.0000
vt 0.4345 0.3289 0.0000
vt 0.4345 0.1721 0.0000
vt 0.4457 0.1747 0.0000
vt 0.4457 0.3263 0.0000
vt 0.5014 0.0374 0.0000
vt 0.5083 0.0486 0.0000
vt 0.5408 0.0374 0.0000
vt 0.5228 0.0486 0.0000
vt 0.4792 0.1615 0.0000
vt 0.4680 0.1589 0.0000
vt 0.4792 0.3396 0.0000
vt 0.4680 0.3422 0.0000
vt 0.5408 0.4637 0.0000
vt 0.5228 0.4525 0.0000
vt 0.5014 0.4637 0.0000
vt 0.5083 0.4525 0.0000
vt 0.3423 0.5795 0.0000
vt 0.3423 0.6697 0.0000
vt 0.3290 0.6697 0.0000
vt 0.3290 0.5795 0.0000
vt 0.3423 0.7448 0.0000
vt 0.3290 0.7448 0.0000
vt 0.1821 0.8570 0.0000
vt 0.1821 0.8487 0.0000
vt 0.1949 0.8487 0.0000
vt 0.1949 0.8570 0.0000
vt 0.1274 0.7325 0.0000
vt 0.1274 0.7979 0.0000
vt 0.1141 0.7979 0.0000
vt 0.1141 0.7325 0.0000
vt 0.1274 0.9065 0.0000
vt 0.1141 0.9065 0.0000
vt 0.1274 0.9719 0.0000
vt 0.1141 0.9719 0.0000
vt 0.1646 0.8636 0.0000
vt 0.1646 0.8553 0.0000
vt 0.1774 0.8553 0.0000
vt 0.1774 0.8636 0.0000
vt 0.3423 0.5044 0.0000
vt 0.3290 0.5044 0.0000
vt 0.0941 0.8005 0.0000
vt 0.0941 0.8443 0.0000
vt 0.2325 0.8023 0.0000
vt 0.2325 0.7851 0.0000
vt 0.2482 0.7851 0.0000
vt 0.2482 0.8023 0.0000
vt 0.0154 0.9342 0.0000
vt 0.0154 0.8904 0.0000
vt 0.0677 0.8904 0.0000
vt 0.0677 0.9342 0.0000
vt 0.0624 0.5991 0.0000
vt 0.1027 0.8005 0.0000
vt 0.1067 0.8005 0.0000
vt 0.1067 0.8299 0.0000
vt 0.1027 0.8299 0.0000
vt 0.0624 0.7979 0.0000
vt 0.0941 0.9012 0.0000
vt 0.0941 0.9342 0.0000
vt 0.4616 0.6498 0.0000
vt 0.4616 0.5624 0.0000
vt 0.4616 0.7656 0.0000
vt 0.4616 0.7429 0.0000
vt 0.4075 0.9478 0.0000
vt 0.3839 0.9478 0.0000
vt 0.3839 0.7760 0.0000
vt 0.4075 0.7760 0.0000
vt 0.3903 0.7588 0.0000
vt 0.4075 0.7588 0.0000
vt 0.4537 0.9584 0.0000
vt 0.4621 0.9584 0.0000
vt 0.4621 0.9802 0.0000
vt 0.4537 0.9802 0.0000
vt 0.2587 0.7851 0.0000
vt 0.2673 0.7851 0.0000
vt 0.2673 0.8052 0.0000
vt 0.2587 0.8052 0.0000
vt 0.4577 0.9867 0.0000
vt 0.4537 0.9867 0.0000
vt 0.2629 0.8132 0.0000
vt 0.2587 0.8132 0.0000
vt 0.8572 0.1562 0.0000
vt 0.8572 0.3395 0.0000
vt 0.8349 0.3236 0.0000
vt 0.8349 0.1720 0.0000
vt 0.8975 0.0459 0.0000
vt 0.9120 0.0459 0.0000
vt 0.0932 0.7033 0.0000
vt 0.0932 0.7834 0.0000
vt 0.9120 0.4498 0.0000
vt 0.8975 0.4498 0.0000
vt 0.1603 0.9667 0.0000
vt 0.1603 0.9387 0.0000
vt 0.1094 0.7979 0.0000
vt 0.1094 0.7033 0.0000
vt 0.0932 0.5991 0.0000
vt 0.1094 0.5991 0.0000
vt 0.0932 0.5190 0.0000
vt 0.1094 0.5044 0.0000
vt 0.2552 0.7806 0.0000
vt 0.2284 0.7708 0.0000
vt 0.1887 0.6908 0.0000
vt 0.2107 0.6908 0.0000
vt 0.1887 0.5920 0.0000
vt 0.2107 0.5920 0.0000
vt 0.2284 0.5121 0.0000
vt 0.2552 0.5022 0.0000
vt 0.0419 0.8881 0.0000
vt 0.0154 0.8773 0.0000
vt 0.4955 0.5851 0.0000
vt 0.4861 0.6202 0.0000
vt 0.4955 0.6849 0.0000
vt 0.4861 0.6498 0.0000
vt 0.4702 0.5624 0.0000
vt 0.4702 0.5271 0.0000
vt 0.4955 0.5044 0.0000
vt 0.4702 0.7076 0.0000
vt 0.4955 0.7656 0.0000
vt 0.4702 0.7429 0.0000
vt 0.4838 0.7676 0.0000
vt 0.4838 0.9394 0.0000
vt 0.1581 0.7851 0.0000
vt 0.1581 0.9569 0.0000
vt 0.1295 0.9569 0.0000
vt 0.1295 0.7851 0.0000
vt 0.4774 0.9566 0.0000
vt 0.1516 0.9741 0.0000
vt 0.1359 0.9741 0.0000
vt 0.1931 0.7925 0.0000
vt 0.2137 0.7851 0.0000
vt 0.2267 0.8217 0.0000
vt 0.2061 0.8290 0.0000
vt 0.4672 0.9864 0.0000
vt 0.4672 0.9664 0.0000
vt 0.1821 0.8482 0.0000
vt 0.1821 0.8268 0.0000
vt 0.4001 0.9795 0.0000
vt 0.3992 0.9576 0.0000
vt 0.4380 0.9560 0.0000
vt 0.4389 0.9778 0.0000
vt 0.2213 0.7871 0.0000
vt 0.2314 0.8154 0.0000
vt 0.4717 0.9584 0.0000
vt 0.1558 0.9738 0.0000
vt 0.4033 0.9509 0.0000
vt 0.4334 0.9496 0.0000
vt 0.2241 0.5951 0.0000
vt 0.2241 0.6877 0.0000
vt 0.2635 0.7672 0.0000
vt 0.2868 0.7672 0.0000
vt 0.3084 0.7806 0.0000
vt 0.2504 0.6940 0.0000
vt 0.2638 0.6908 0.0000
vt 0.2504 0.5889 0.0000
vt 0.2638 0.5920 0.0000
vt 0.2868 0.5156 0.0000
vt 0.3084 0.5022 0.0000
vt 0.2635 0.5156 0.0000
vt 0.4213 0.6780 0.0000
vt 0.4080 0.6780 0.0000
vt 0.4080 0.5846 0.0000
vt 0.4213 0.5846 0.0000
vt 0.4080 0.5044 0.0000
vt 0.4213 0.5044 0.0000
vt 0.1646 0.8312 0.0000
vt 0.1774 0.8312 0.0000
vt 0.1774 0.8538 0.0000
vt 0.1646 0.8538 0.0000
vt 0.3621 0.7576 0.0000
vt 0.3488 0.7576 0.0000
vt 0.3488 0.6839 0.0000
vt 0.3621 0.6839 0.0000
vt 0.3488 0.5781 0.0000
vt 0.3621 0.5781 0.0000
vt 0.3488 0.5044 0.0000
vt 0.3621 0.5044 0.0000
vt 0.2852 0.7851 0.0000
vt 0.2980 0.7851 0.0000
vt 0.2980 0.8078 0.0000
vt 0.2852 0.8078 0.0000
vt 0.4213 0.7583 0.0000
vt 0.4080 0.7583 0.0000
vt 0.5491 0.1622 0.0000
vt 0.5603 0.1648 0.0000
vt 0.5603 0.3164 0.0000
vt 0.5491 0.3190 0.0000
vt 0.6229 0.4426 0.0000
vt 0.6160 0.4537 0.0000
vt 0.6374 0.4426 0.0000
vt 0.6554 0.4537 0.0000
vt 0.5826 0.3323 0.0000
vt 0.5938 0.3297 0.0000
vt 0.5826 0.1489 0.0000
vt 0.5938 0.1516 0.0000
vt 0.6374 0.0387 0.0000
vt 0.6554 0.0275 0.0000
vt 0.6229 0.0387 0.0000
vt 0.6160 0.0275 0.0000
vt 0.3005 0.5949 0.0000
vt 0.3138 0.5949 0.0000
vt 0.3138 0.6851 0.0000
vt 0.3005 0.6851 0.0000
vt 0.3138 0.7602 0.0000
vt 0.3005 0.7602 0.0000
vt 0.1774 0.8724 0.0000
vt 0.1646 0.8724 0.0000
vt 0.1646 0.8641 0.0000
vt 0.1774 0.8641 0.0000
vt 0.3290 0.7457 0.0000
vt 0.3423 0.7457 0.0000
vt 0.3423 0.8110 0.0000
vt 0.3290 0.8110 0.0000
vt 0.3423 0.9197 0.0000
vt 0.3290 0.9197 0.0000
vt 0.3423 0.9851 0.0000
vt 0.3290 0.9851 0.0000
vt 0.3221 0.5105 0.0000
vt 0.3093 0.5105 0.0000
vt 0.3093 0.5022 0.0000
vt 0.3221 0.5022 0.0000
vt 0.3005 0.5198 0.0000
vt 0.3138 0.5198 0.0000
vt 0.0941 0.8881 0.0000
vt 0.2482 0.8195 0.0000
vt 0.2325 0.8195 0.0000
vt 0.0677 0.9780 0.0000
vt 0.0154 0.9780 0.0000
vt 0.0988 0.8299 0.0000
vt 0.0988 0.8005 0.0000
vt 0.0941 0.9672 0.0000
vt 0.4312 0.7760 0.0000
vt 0.4312 0.9478 0.0000
vt 0.4247 0.7588 0.0000
vt 0.4453 0.9802 0.0000
vt 0.4453 0.9584 0.0000
vt 0.2501 0.8052 0.0000
vt 0.2501 0.7851 0.0000
vt 0.4496 0.9867 0.0000
vt 0.2546 0.8132 0.0000
# 362 texture coords

g Turret
usemtl Material__85
s 4
f 1/1/1 2/2/1 3/3/1 4/4/1 
s off
f 2/2/1 1/1/1 5/5/1 6/6/1 
f 7/7/2 8/8/2 9/9/2 10/10/2 
f 4/4/1 3/3/1 11/11/1 12/12/1 
f 13/13/3 14/14/3 15/15/3 16/16/3 
f 17/17/4 18/18/4 7/7/4 10/10/4 
f 18/18/5 19/19/5 20/20/5 7/7/5 
f 19/19/6 21/21/6 22/22/6 20/20/6 
f 21/21/7 23/23/7 24/24/7 22/22/7 
f 25/25/8 26/26/8 27/27/8 28/28/8 
f 26/26/9 29/29/9 30/30/9 27/27/9 
f 29/29/10 31/31/10 32/32/10 30/30/10 
f 31/33/11 33/34/11 34/35/11 32/36/11 
f 30/37/12 35/38/12 36/39/12 37/40/12 
f 27/41/12 30/37/12 37/40/12 38/42/12 
f 30/37/13 32/43/13 39/44/13 40/45/13 
f 32/43/14 34/46/14 41/47/14 39/44/14 
f 27/41/3 42/48/3 43/49/3 44/50/3 
f 28/51/3 27/41/3 44/50/3 45/52/3 
f 37/53/15 36/54/15 46/55/15 47/56/15 
f 38/57/1 37/58/1 47/59/1 48/60/1 
f 47/56/16 46/55/16 49/61/16 50/62/16 
f 48/60/17 47/59/17 50/63/17 51/64/17 
f 40/65/1 39/66/1 52/67/1 53/68/1 
f 39/69/18 41/70/18 54/71/18 52/72/18 
f 44/73/19 43/74/19 55/75/19 56/76/19 
f 45/77/1 44/78/1 56/79/1 57/80/1 
f 53/68/20 52/67/20 58/81/20 59/82/20 
f 52/72/21 54/71/21 60/83/21 58/84/21 
f 56/85/22 55/86/22 14/14/22 13/13/22 
f 57/80/23 56/79/23 13/87/23 16/88/23 
f 29/29/1 26/26/1 61/89/1 62/90/1 
f 26/26/1 25/25/1 63/91/1 61/89/1 
f 25/25/1 21/92/1 64/93/1 63/91/1 
f 21/92/1 19/94/1 65/95/1 64/93/1 
f 19/94/1 18/96/1 66/97/1 65/95/1 
f 18/96/1 17/98/1 67/99/1 66/97/1 
f 17/98/1 31/31/1 68/100/1 67/99/1 
f 31/31/1 29/29/1 62/90/1 68/100/1 
f 62/101/24 61/102/24 69/103/24 70/104/24 
f 61/102/25 63/105/25 71/106/25 69/103/25 
f 63/107/15 64/108/15 72/109/15 71/110/15 
f 64/111/3 65/112/3 73/113/3 72/114/3 
f 65/112/12 66/115/12 74/116/12 73/113/12 
f 66/115/13 67/117/13 75/118/13 74/116/13 
f 67/119/26 68/120/26 76/121/26 75/122/26 
f 68/123/2 62/101/2 70/104/2 76/124/2 
f 70/125/1 69/126/1 77/127/1 78/128/1 
f 69/126/1 71/129/1 79/130/1 77/127/1 
f 71/129/1 72/131/1 80/132/1 79/130/1 
f 72/131/1 73/133/1 81/134/1 80/132/1 
f 73/133/1 74/135/1 82/136/1 81/134/1 
f 74/135/1 75/137/1 83/138/1 82/136/1 
f 75/137/1 76/139/1 84/140/1 83/138/1 
f 76/139/1 70/125/1 78/128/1 84/140/1 
f 78/141/12 77/142/12 3/143/12 2/144/12 
f 77/142/3 79/145/3 11/146/3 3/143/3 
f 79/147/26 80/148/26 12/149/26 11/150/26 
f 80/151/25 81/152/25 4/153/25 12/154/25 
f 81/152/24 82/155/24 1/156/24 4/153/24 
f 82/155/2 83/157/2 5/158/2 1/156/2 
f 83/159/15 84/160/15 6/161/15 5/162/15 
f 84/163/13 78/141/13 2/144/13 6/164/13 
s 8
f 33/34/15 31/33/15 17/165/15 85/166/15 
s 16
f 86/167/12 51/168/12 50/169/12 49/170/12 
s 32
f 23/171/26 21/172/26 25/173/26 87/174/26 
s 64
f 8/8/24 7/7/24 20/20/24 88/175/24 
s off
f 89/176/13 59/177/13 58/178/13 60/179/13 
f 88/175/25 20/20/25 22/22/25 24/24/25 
f 85/180/27 17/17/27 10/10/27 9/9/27 
f 87/174/28 25/173/28 28/181/28 90/182/28 
f 42/48/12 27/41/12 38/42/12 91/183/12 
f 35/38/13 30/37/13 40/45/13 92/184/13 
f 90/185/3 28/51/3 45/52/3 93/186/3 
f 91/187/26 38/188/26 48/189/26 94/190/26 
f 94/190/29 48/189/29 51/191/29 86/192/29 
f 92/193/30 40/194/30 53/195/30 95/196/30 
f 93/197/31 45/198/31 57/199/31 96/200/31 
f 95/196/32 53/195/32 59/201/32 89/202/32 
f 96/200/33 57/199/33 16/203/33 15/204/33 
s 4
f 97/205/34 98/206/34 99/207/34 100/208/34 
s off
f 100/208/34 101/209/34 102/210/34 97/205/34 
f 103/211/2 104/212/2 9/9/2 8/8/2 
f 98/206/34 105/213/34 106/214/34 99/207/34 
f 107/215/3 108/216/3 15/15/3 14/14/3 
f 109/217/35 104/212/35 103/211/35 110/218/35 
f 110/218/36 103/211/36 111/219/36 112/220/36 
f 112/220/37 111/219/37 113/221/37 114/222/37 
f 114/222/7 113/221/7 24/24/7 23/23/7 
f 115/223/38 116/224/38 117/225/38 118/226/38 
f 118/226/39 117/225/39 119/227/39 120/228/39 
f 120/228/40 119/227/40 121/229/40 122/230/40 
f 122/231/41 121/232/41 34/35/41 33/34/41 
f 119/233/12 123/234/12 36/39/12 35/38/12 
f 117/235/12 124/236/12 123/234/12 119/233/12 
f 119/233/13 125/237/13 126/238/13 121/239/13 
f 121/239/13 126/238/13 41/47/13 34/46/13 
f 117/235/3 127/240/3 43/49/3 42/48/3 
f 116/241/3 128/242/3 127/240/3 117/235/3 
f 123/243/15 129/244/15 46/55/15 36/54/15 
f 124/245/34 130/246/34 129/247/34 123/248/34 
f 129/244/16 131/249/16 49/61/16 46/55/16 
f 130/246/42 132/250/42 131/251/42 129/247/42 
f 125/252/34 133/253/34 134/254/34 126/255/34 
f 126/256/18 134/257/18 54/71/18 41/70/18 
f 127/258/19 135/259/19 55/75/19 43/74/19 
f 128/260/34 136/261/34 135/262/34 127/263/34 
f 133/253/43 137/264/43 138/265/43 134/254/43 
f 134/257/21 138/266/21 60/83/21 54/71/21 
f 135/267/22 107/215/22 14/14/22 55/86/22 
f 136/261/44 108/268/44 107/269/44 135/262/44 
f 120/228/34 139/270/34 140/271/34 118/226/34 
f 118/226/34 140/271/34 141/272/34 115/223/34 
f 115/223/34 141/272/34 142/273/34 114/274/34 
f 114/274/34 142/273/34 143/275/34 112/276/34 
f 112/276/34 143/275/34 144/277/34 110/278/34 
f 110/278/34 144/277/34 145/279/34 109/280/34 
f 109/280/34 145/279/34 146/281/34 122/230/34 
f 122/230/34 146/281/34 139/270/34 120/228/34 
f 139/282/24 147/283/24 148/284/24 140/285/24 
f 140/285/25 148/284/25 149/286/25 141/287/25 
f 141/288/15 149/289/15 150/290/15 142/291/15 
f 142/292/3 150/293/3 151/294/3 143/295/3 
f 143/295/12 151/294/12 152/296/12 144/297/12 
f 144/297/13 152/296/13 153/298/13 145/299/13 
f 145/300/26 153/301/26 154/302/26 146/303/26 
f 146/304/2 154/305/2 147/283/2 139/282/2 
f 147/306/34 155/307/34 156/308/34 148/309/34 
f 148/309/34 156/308/34 157/310/34 149/311/34 
f 149/311/34 157/310/34 158/312/34 150/313/34 
f 150/313/34 158/312/34 159/314/34 151/315/34 
f 151/315/34 159/314/34 160/316/34 152/317/34 
f 152/317/34 160/316/34 161/318/34 153/319/34 
f 153/319/34 161/318/34 162/320/34 154/321/34 
f 154/321/34 162/320/34 155/307/34 147/306/34 
f 155/322/12 100/323/12 99/324/12 156/325/12 
f 156/325/3 99/324/3 106/326/3 157/327/3 
f 157/328/26 106/329/26 105/330/26 158/331/26 
f 158/332/25 105/333/25 98/334/25 159/335/25 
f 159/335/24 98/334/24 97/336/24 160/337/24 
f 160/337/2 97/336/2 102/338/2 161/339/2 
f 161/340/15 102/341/15 101/342/15 162/343/15 
f 162/344/13 101/345/13 100/323/13 155/322/13 
s 8
f 33/34/15 85/166/15 109/346/15 122/231/15 
s 16
f 86/167/12 49/170/12 131/347/12 132/348/12 
s 32
f 23/171/26 87/174/26 115/349/26 114/350/26 
s 64
f 8/8/24 88/175/24 111/219/24 103/211/24 
s off
f 89/176/13 60/179/13 138/351/13 137/352/13 
f 88/175/25 24/24/25 113/221/25 111/219/25 
f 85/180/27 9/9/27 104/212/27 109/217/27 
f 87/174/28 90/182/28 116/353/28 115/349/28 
f 42/48/12 91/183/12 124/236/12 117/235/12 
f 35/38/13 92/184/13 125/237/13 119/233/13 
f 90/185/3 93/186/3 128/242/3 116/241/3 
f 91/187/26 94/190/26 130/354/26 124/355/26 
f 94/190/29 86/192/29 132/356/29 130/354/29 
f 92/193/30 95/196/30 133/357/30 125/358/30 
f 93/197/31 96/200/31 136/359/31 128/360/31 
f 95/196/32 89/202/32 137/361/32 133/357/32 
f 96/200/33 15/204/33 108/362/33 136/359/33 
# 160 polygons

